<svg width="793" height="423" viewBox="0 0 793 423" fill="none" xmlns="http://www.w3.org/2000/svg">
<g filter="url(#filter0_iii_24_134)">
<rect width="793" height="423" fill="#C3C3C3"/>
</g>
<rect width="783" height="42" transform="translate(4 4)" fill="#02007F"/>
<path d="M23.07 34.03V31.63H15.87V34.03H23.07ZM25.47 31.63V24.43H23.07V31.63H25.47ZM15.87 31.63V29.23H13.5V31.63H15.87ZM23.07 14.83V12.43H15.87V14.83H23.07ZM25.47 17.23V14.83H23.07V17.23H25.47ZM15.87 22.03V14.83H13.5V22.03H15.87ZM23.07 24.43V22.03H15.87V24.43H23.07ZM30.87 12.43H28.5V34H30.87V24.43H33.27V22.03H30.87V12.43ZM38.07 22.03V19.63H33.27V22.03H38.07ZM40.47 34.03V22.03H38.07V34.03H40.47ZM50.7 34.03V31.63H45.87V34.03H50.7ZM45.87 31.63V19.63H43.5V31.63H45.87ZM53.07 19.63V29.23H50.67V31.63H53.07V34H55.47V19.63H53.07ZM63.27 22.03V19.63H60.87V14.83H58.5V31.63H60.87V22.03H63.27ZM63.27 34.03V31.63H60.87V34.03H63.27ZM84.8255 17.23V14.83H82.4255V17.23H84.8255ZM75.2255 14.83H82.4255V12.43H72.8555V34H82.4255V31.63H75.2255V14.83ZM84.8255 31.63V29.23H82.4255V31.63H84.8255ZM87.2255 29.23V17.23H84.8255V29.23H87.2255ZM99.8278 34.03V31.63H92.6278V34.03H99.8278ZM92.6278 31.63V22.03H90.2578V31.63H92.6278ZM99.8278 22.03V19.63H92.6278V22.03H99.8278ZM102.228 31.63V22.03H99.8278V31.63H102.228ZM107.628 29.23V19.6H105.258V29.23H107.628ZM112.428 29.23V24.43H110.028V29.23H112.428ZM110.028 34V29.23H107.628V34H110.028ZM119.628 34V29.23H117.228V34H119.628ZM122.028 29.23V19.6H119.628V29.23H122.028ZM114.828 24.43V19.6H112.428V24.43H114.828ZM117.228 29.23V24.43H114.828V29.23H117.228ZM127.433 19.63H125.063V34H127.433V24.43H129.833V22.03H127.433V19.63ZM137.033 34.03V22.03H134.633V34.03H137.033ZM134.633 22.03V19.63H129.833V22.03H134.633ZM148.995 17.23V12.43H146.625V17.23H148.995ZM151.395 24.43V17.23H148.995V24.43H151.395ZM153.795 29.23V24.43H151.395V29.23H153.795ZM156.195 34V29.23H153.795V34H156.195ZM165.795 34V29.23H163.395V34H165.795ZM168.195 29.23V24.43H165.795V29.23H168.195ZM170.595 24.43V17.23H168.195V24.43H170.595ZM173.025 17.23V12.43H170.595V17.23H173.025ZM158.595 29.23V24.43H156.195V29.23H158.595ZM163.395 29.23V24.43H160.995V29.23H163.395ZM160.995 24.43V17.23H158.595V24.43H160.995ZM178.409 34V19.6H176.039V34H178.409ZM178.409 14.83V12.43H176.039V14.83H178.409ZM183.8 19.63H181.43V34H183.8V24.43H186.2V22.03H183.8V19.63ZM193.4 34.03V22.03H191V34.03H193.4ZM191 22.03V19.63H186.2V22.03H191ZM198.8 31.63V22.03H196.43V31.63H198.8ZM206 12.43V19.6H198.8V22.03H206V31.63H198.8V34H208.4V12.43H206ZM221 34.03V31.63H213.8V34.03H221ZM213.8 31.63V22.03H211.43V31.63H213.8ZM221 22.03V19.63H213.8V22.03H221ZM223.4 31.63V22.03H221V31.63H223.4ZM228.8 29.23V19.6H226.43V29.23H228.8ZM233.6 29.23V24.43H231.2V29.23H233.6ZM231.2 34V29.23H228.8V34H231.2ZM240.8 34V29.23H238.4V34H240.8ZM243.2 29.23V19.6H240.8V29.23H243.2ZM236 24.43V19.6H233.6V24.43H236ZM238.4 29.23V24.43H236V29.23H238.4ZM255.804 31.63V29.23H253.434V31.63H255.804ZM253.404 29.23V26.83H251.004V29.23H253.404ZM248.604 31.63V29.23H246.234V31.63H248.604ZM253.434 34.03V31.63H248.604V34.03H253.434ZM251.004 26.83V24.43H248.604V26.83H251.004ZM255.804 24.43V22.03H253.434V24.43H255.804ZM253.434 22.03V19.63H248.604V22.03H253.434ZM248.604 24.43V22.03H246.234V24.43H248.604Z" fill="white"/>
<g filter="url(#filter1_iii_24_134)">
<rect x="751" y="9" width="32" height="32" fill="#C3C3C3"/>
</g>
<rect x="760" y="17" width="2" height="3" fill="black"/>
<rect x="760" y="29" width="2" height="3" fill="black"/>
<rect x="771" y="17" width="2" height="3" fill="black"/>
<rect x="771" y="29" width="2" height="3" fill="black"/>
<rect x="762" y="20" width="2" height="3" fill="black"/>
<rect x="762" y="26" width="2" height="3" fill="black"/>
<rect x="769" y="20" width="2" height="3" fill="black"/>
<rect x="769" y="26" width="2" height="3" fill="black"/>
<rect x="764" y="23" width="5" height="3" fill="black"/>
<g filter="url(#filter2_iii_24_134)">
<rect x="152" y="343" width="147" height="48" fill="#C3C3C3"/>
</g>
<path d="M209.135 361.584V357.744H207.239V361.584H209.135ZM212.975 365.424V363.504H211.055V365.424H212.975ZM214.895 375.024V365.424H212.999V375.024H214.895ZM211.055 363.504V361.584H209.135V363.504H211.055ZM220.655 361.584V357.744H218.735V361.584H220.655ZM216.815 365.424V363.504H214.895V365.424H216.815ZM218.735 363.504V361.584H216.815V363.504H218.735ZM230.739 375.024V373.104H224.979V375.024H230.739ZM232.659 373.104V371.184H230.739V373.104H232.659ZM230.739 365.424V363.504H224.979V365.424H230.739ZM232.659 369.264V365.424H230.739V367.344H224.979V365.424H223.083V373.104H224.979V369.264H232.659ZM242.739 373.104V371.184H240.843V373.104H242.739ZM240.819 371.184V369.264H238.899V371.184H240.819ZM236.979 373.104V371.184H235.083V373.104H236.979ZM240.843 375.024V373.104H236.979V375.024H240.843ZM238.899 369.264V367.344H236.979V369.264H238.899ZM242.739 367.344V365.424H240.843V367.344H242.739ZM240.843 365.424V363.504H236.979V365.424H240.843ZM236.979 367.344V365.424H235.083V367.344H236.979Z" fill="black"/>
<path d="M206.039 376.176H221.879V377.352H206.039V376.176Z" fill="black"/>
<rect x="151" y="342" width="149" height="50" stroke="black" stroke-width="2"/>
<g filter="url(#filter3_iii_24_134)">
<rect x="323" y="343" width="147" height="48" fill="#C3C3C3"/>
</g>
<path d="M389.975 367.344V363.504H388.055V367.344H389.975ZM386.135 359.664V357.744H384.239V375H386.135V363.504H388.055V359.664H386.135ZM393.815 357.744V369.264H391.895V373.104H393.815V375H395.735V357.744H393.815ZM391.895 369.264V367.344H389.975V369.264H391.895ZM405.817 375.024V373.104H400.057V375.024H405.817ZM400.057 373.104V365.424H398.161V373.104H400.057ZM405.817 365.424V363.504H400.057V365.424H405.817ZM407.737 373.104V365.424H405.817V373.104H407.737Z" fill="black"/>
<path d="M383.039 376.176H396.959V377.352H383.039V376.176Z" fill="black"/>
<g filter="url(#filter4_iii_24_134)">
<rect x="494" y="343" width="147" height="48" fill="#C3C3C3"/>
</g>
<path d="M557.159 357.744V365.424H549.479V357.744H547.583V375H549.479V367.344H557.159V375H559.079V357.744H557.159ZM569.161 375.024V373.104H563.401V375.024H569.161ZM571.081 373.104V371.184H569.161V373.104H571.081ZM569.161 365.424V363.504H563.401V365.424H569.161ZM571.081 369.264V365.424H569.161V367.344H563.401V365.424H561.505V373.104H563.401V369.264H571.081ZM575.401 375V357.744H573.505V375H575.401ZM579.713 365.424H585.473V363.504H577.817V378.84H579.713V375H585.473V373.104H579.713V365.424ZM587.393 373.104V365.424H585.473V373.104H587.393Z" fill="black"/>
<path d="M546.383 376.176H560.303V377.352H546.383V376.176Z" fill="black"/>
<path d="M74.594 89.466V85.306H72.514V89.466H74.594ZM80.834 104V99.866H78.754V104H80.834ZM76.674 93.626V89.466H74.594V93.626H76.674ZM68.354 104V99.866H66.3V104H68.354ZM76.674 93.626V97.786H70.434V93.626H68.354V99.866H78.754V93.626H76.674ZM72.514 93.626V89.466H70.434V93.626H72.514ZM83.4641 91.52V104H85.5181V93.626H87.5981V91.52H83.4641ZM98.512 104.026V101.946H92.272V104.026H98.512ZM100.592 101.946V99.866H98.512V101.946H100.592ZM98.512 93.626V91.546H92.272V93.626H98.512ZM100.592 97.786V93.626H98.512V95.706H92.272V93.626H90.218V101.946H92.272V97.786H100.592ZM117.433 99.866V91.52H115.353V99.866H117.433ZM111.193 106.08H113.273V101.946H115.353V99.866H111.193V106.08ZM111.193 108.16V106.08H107.059V108.16H111.193ZM111.193 99.866V91.52H109.113V99.866H111.193ZM128.346 104.026V101.946H122.106V104.026H128.346ZM122.106 101.946V93.626H120.052V101.946H122.106ZM128.346 93.626V91.546H122.106V93.626H128.346ZM130.426 101.946V93.626H128.346V101.946H130.426ZM139.292 104.026V101.946H135.106V104.026H139.292ZM135.106 101.946V91.546H133.052V101.946H135.106ZM141.346 91.546V99.866H139.266V101.946H141.346V104H143.426V91.546H141.346ZM160.033 101.946V99.866H157.979V101.946H160.033ZM157.953 99.866V97.786H155.873V99.866H157.953ZM153.793 101.946V99.866H151.739V101.946H153.793ZM157.979 104.026V101.946H153.793V104.026H157.979ZM155.873 97.786V95.706H153.793V97.786H155.873ZM160.033 95.706V93.626H157.979V95.706H160.033ZM157.979 93.626V91.546H153.793V93.626H157.979ZM153.793 95.706V93.626H151.739V95.706H153.793ZM168.897 104.026V101.946H164.711V104.026H168.897ZM164.711 101.946V91.546H162.657V101.946H164.711ZM170.951 91.546V99.866H168.871V101.946H170.951V104H173.031V91.546H170.951ZM175.657 91.52V104H177.711V93.626H179.791V91.52H175.657ZM190.705 104.026V101.946H184.465V104.026H190.705ZM192.785 101.946V99.866H190.705V101.946H192.785ZM190.705 93.626V91.546H184.465V93.626H190.705ZM192.785 97.786V93.626H190.705V95.706H184.465V93.626H182.411V101.946H184.465V97.786H192.785ZM209.627 99.866V91.52H207.547V99.866H209.627ZM203.387 106.08H205.467V101.946H207.547V99.866H203.387V106.08ZM203.387 108.16V106.08H199.253V108.16H203.387ZM203.387 99.866V91.52H201.307V99.866H203.387ZM220.539 104.026V101.946H214.299V104.026H220.539ZM214.299 101.946V93.626H212.245V101.946H214.299ZM220.539 93.626V91.546H214.299V93.626H220.539ZM222.619 101.946V93.626H220.539V101.946H222.619ZM231.485 104.026V101.946H227.299V104.026H231.485ZM227.299 101.946V91.546H225.245V101.946H227.299ZM233.539 91.546V99.866H231.459V101.946H233.539V104H235.619V91.546H233.539ZM245.987 99.866V91.52H243.933V99.866H245.987ZM250.147 99.866V95.706H248.067V99.866H250.147ZM248.067 104V99.866H245.987V104H248.067ZM256.387 104V99.866H254.307V104H256.387ZM258.467 99.866V91.52H256.387V99.866H258.467ZM252.227 95.706V91.52H250.147V95.706H252.227ZM254.307 99.866V95.706H252.227V99.866H254.307ZM269.391 93.626V91.52H263.151V93.626H269.391ZM263.151 101.946V97.76H261.097V101.946H263.151ZM269.391 93.626V95.706H263.151V97.76H269.391V101.946H263.151V104H271.471V93.626H269.391ZM276.151 91.546H274.097V104H276.151V95.706H278.231V93.626H276.151V91.546ZM284.471 104.026V93.626H282.391V104.026H284.471ZM282.391 93.626V91.546H278.231V93.626H282.391ZM291.231 93.626V91.546H289.151V87.386H287.097V101.946H289.151V93.626H291.231ZM291.231 104.026V101.946H289.151V104.026H291.231ZM303.672 93.626V91.546H301.592V87.386H299.538V101.946H301.592V93.626H303.672ZM303.672 104.026V101.946H301.592V104.026H303.672ZM314.586 104.026V101.946H308.346V104.026H314.586ZM308.346 101.946V93.626H306.292V101.946H308.346ZM314.586 93.626V91.546H308.346V93.626H314.586ZM316.666 101.946V93.626H314.586V101.946H316.666ZM321.346 104V101.946H319.292V104H321.346ZM321.346 93.626V91.546H319.292V93.626H321.346Z" fill="black"/>
<g filter="url(#filter5_ii_24_134)">
<circle cx="144" cy="156" r="8" fill="#C3C3C3"/>
</g>
<circle cx="144" cy="156" r="6" fill="white"/>
<circle cx="144" cy="156" r="3" fill="black"/>
<path d="M176.594 164.026V161.946H170.354V164.026H176.594ZM178.674 161.946V155.706H176.594V161.946H178.674ZM170.354 161.946V159.866H168.3V161.946H170.354ZM176.594 147.386V145.306H170.354V147.386H176.594ZM178.674 149.466V147.386H176.594V149.466H178.674ZM170.354 153.626V147.386H168.3V153.626H170.354ZM176.594 155.706V153.626H170.354V155.706H176.594ZM183.354 145.306H181.3V164H183.354V155.706H185.434V153.626H183.354V145.306ZM189.594 153.626V151.546H185.434V153.626H189.594ZM191.674 164.026V153.626H189.594V164.026H191.674ZM200.54 164.026V161.946H196.354V164.026H200.54ZM196.354 161.946V151.546H194.3V161.946H196.354ZM202.594 151.546V159.866H200.514V161.946H202.594V164H204.674V151.546H202.594ZM211.434 153.626V151.546H209.354V147.386H207.3V161.946H209.354V153.626H211.434ZM211.434 164.026V161.946H209.354V164.026H211.434ZM221.795 161.946V153.626H219.741V161.946H221.795ZM228.035 145.306V151.52H221.795V153.626H228.035V161.946H221.795V164H230.115V145.306H228.035ZM241.035 164.026V161.946H234.795V164.026H241.035ZM234.795 161.946V153.626H232.741V161.946H234.795ZM241.035 153.626V151.546H234.795V153.626H241.035ZM243.115 161.946V153.626H241.035V161.946H243.115ZM247.795 159.866V151.52H245.741V159.866H247.795ZM251.955 159.866V155.706H249.875V159.866H251.955ZM249.875 164V159.866H247.795V164H249.875ZM258.195 164V159.866H256.115V164H258.195ZM260.275 159.866V151.52H258.195V159.866H260.275ZM254.035 155.706V151.52H251.955V155.706H254.035ZM256.115 159.866V155.706H254.035V159.866H256.115ZM264.959 151.546H262.905V164H264.959V155.706H267.039V153.626H264.959V151.546ZM273.279 164.026V153.626H271.199V164.026H273.279ZM271.199 153.626V151.546H267.039V153.626H271.199ZM285.727 153.626V151.546H283.647V147.386H281.593V161.946H283.647V153.626H285.727ZM285.727 164.026V161.946H283.647V164.026H285.727ZM290.401 145.306H288.347V164H290.401V155.706H292.481V153.626H290.401V145.306ZM296.641 153.626V151.546H292.481V153.626H296.641ZM298.721 164.026V153.626H296.641V164.026H298.721ZM309.641 164.026V161.946H303.401V164.026H309.641ZM311.721 161.946V159.866H309.641V161.946H311.721ZM309.641 153.626V151.546H303.401V153.626H309.641ZM311.721 157.786V153.626H309.641V155.706H303.401V153.626H301.347V161.946H303.401V157.786H311.721ZM330.408 161.946V159.866H328.328V161.946H330.408ZM322.088 161.946V153.626H320.034V161.946H322.088ZM328.328 164.026V161.946H322.088V164.026H328.328ZM328.328 153.626V151.546H322.088V153.626H328.328ZM330.408 155.706V153.626H328.328V155.706H330.408ZM341.328 164.026V161.946H335.088V164.026H341.328ZM335.088 161.946V153.626H333.034V161.946H335.088ZM341.328 153.626V151.546H335.088V153.626H341.328ZM343.408 161.946V153.626H341.328V161.946H343.408ZM354.328 164.026V153.626H352.274V164.026H354.328ZM346.034 151.546V164H348.088V153.626H352.274V151.546H346.034ZM360.568 164.026V153.626H358.488V164.026H360.568ZM358.488 153.626V151.546H354.328V153.626H358.488ZM365.252 153.626H371.492V151.546H363.198V168.16H365.252V164H371.492V161.946H365.252V153.626ZM373.572 161.946V153.626H371.492V161.946H373.572ZM382.438 164.026V161.946H378.252V164.026H382.438ZM378.252 161.946V151.546H376.198V161.946H378.252ZM384.492 151.546V159.866H382.412V161.946H384.492V164H386.572V151.546H384.492ZM393.332 153.626V151.546H391.252V147.386H389.198V161.946H391.252V153.626H393.332ZM393.332 164.026V161.946H391.252V164.026H393.332ZM404.246 164.026V161.946H398.006V164.026H404.246ZM406.326 161.946V159.866H404.246V161.946H406.326ZM404.246 153.626V151.546H398.006V153.626H404.246ZM406.326 157.786V153.626H404.246V155.706H398.006V153.626H395.952V161.946H398.006V157.786H406.326ZM408.952 151.52V164H411.006V153.626H413.086V151.52H408.952ZM421.92 159.866V155.706H419.84V159.866H421.92ZM424 155.706V153.626H421.92V155.706H424ZM421.92 164V161.946H419.84V164H421.92ZM424 147.386V145.306H417.76V147.386H424ZM417.76 149.466V147.386H415.706V149.466H417.76ZM426.08 153.626V147.386H424V153.626H426.08Z" fill="black"/>
<path d="M167 165.274H180V166.548H167V165.274Z" fill="black"/>
<rect x="160.5" y="135.5" width="274" height="41" stroke="black" stroke-dasharray="2 3"/>
<g filter="url(#filter6_ii_24_134)">
<circle cx="144" cy="198" r="8" fill="#C3C3C3"/>
</g>
<circle cx="144" cy="198" r="6" fill="white"/>
<path d="M180.754 206V197.706H178.674V206H180.754ZM170.354 195.626V189.386H178.674V187.306H168.3V206H170.354V197.706H178.674V195.626H170.354ZM180.754 195.626V189.386H178.674V195.626H180.754ZM191.676 206.026V203.946H185.436V206.026H191.676ZM193.756 203.946V201.866H191.676V203.946H193.756ZM191.676 195.626V193.546H185.436V195.626H191.676ZM193.756 199.786V195.626H191.676V197.706H185.436V195.626H183.382V203.946H185.436V199.786H193.756ZM204.676 203.946V201.866H202.622V203.946H204.676ZM202.596 201.866V199.786H200.516V201.866H202.596ZM198.436 203.946V201.866H196.382V203.946H198.436ZM202.622 206.026V203.946H198.436V206.026H202.622ZM200.516 199.786V197.706H198.436V199.786H200.516ZM204.676 197.706V195.626H202.622V197.706H204.676ZM202.622 195.626V193.546H198.436V195.626H202.622ZM198.436 197.706V195.626H196.382V197.706H198.436ZM211.434 195.626V193.546H209.354V189.386H207.3V203.946H209.354V195.626H211.434ZM211.434 206.026V203.946H209.354V206.026H211.434ZM222.348 195.626V193.52H216.108V195.626H222.348ZM216.108 203.946V199.76H214.054V203.946H216.108ZM222.348 195.626V197.706H216.108V199.76H222.348V203.946H216.108V206H224.428V195.626H222.348ZM227.054 193.52V206H229.108V195.626H231.188V193.52H227.054ZM237.942 195.626V193.546H235.862V189.386H233.808V203.946H235.862V195.626H237.942ZM237.942 206.026V203.946H235.862V206.026H237.942ZM250.383 195.626V193.546H248.303V189.386H246.249V203.946H248.303V195.626H250.383ZM250.383 206.026V203.946H248.303V206.026H250.383ZM255.057 187.306H253.003V206H255.057V197.706H257.137V195.626H255.057V187.306ZM261.297 195.626V193.546H257.137V195.626H261.297ZM263.377 206.026V195.626H261.297V206.026H263.377ZM274.297 206.026V203.946H268.057V206.026H274.297ZM276.377 203.946V201.866H274.297V203.946H276.377ZM274.297 195.626V193.546H268.057V195.626H274.297ZM276.377 199.786V195.626H274.297V197.706H268.057V195.626H266.003V203.946H268.057V199.786H276.377ZM295.065 203.946V201.866H292.985V203.946H295.065ZM286.745 203.946V195.626H284.691V203.946H286.745ZM292.985 206.026V203.946H286.745V206.026H292.985ZM292.985 195.626V193.546H286.745V195.626H292.985ZM295.065 197.706V195.626H292.985V197.706H295.065ZM305.985 206.026V203.946H299.745V206.026H305.985ZM299.745 203.946V195.626H297.691V203.946H299.745ZM305.985 195.626V193.546H299.745V195.626H305.985ZM308.065 203.946V195.626H305.985V203.946H308.065ZM318.985 206.026V195.626H316.931V206.026H318.985ZM310.691 193.546V206H312.745V195.626H316.931V193.546H310.691ZM325.225 206.026V195.626H323.145V206.026H325.225ZM323.145 195.626V193.546H318.985V195.626H323.145ZM329.909 195.626H336.149V193.546H327.855V210.16H329.909V206H336.149V203.946H329.909V195.626ZM338.229 203.946V195.626H336.149V203.946H338.229ZM347.095 206.026V203.946H342.909V206.026H347.095ZM342.909 203.946V193.546H340.855V203.946H342.909ZM349.149 193.546V201.866H347.069V203.946H349.149V206H351.229V193.546H349.149ZM357.989 195.626V193.546H355.909V189.386H353.855V203.946H355.909V195.626H357.989ZM357.989 206.026V203.946H355.909V206.026H357.989ZM368.903 206.026V203.946H362.663V206.026H368.903ZM370.983 203.946V201.866H368.903V203.946H370.983ZM368.903 195.626V193.546H362.663V195.626H368.903ZM370.983 199.786V195.626H368.903V197.706H362.663V195.626H360.609V203.946H362.663V199.786H370.983ZM373.609 193.52V206H375.663V195.626H377.743V193.52H373.609ZM386.577 201.866V197.706H384.497V201.866H386.577ZM388.657 197.706V195.626H386.577V197.706H388.657ZM386.577 206V203.946H384.497V206H386.577ZM388.657 189.386V187.306H382.417V189.386H388.657ZM382.417 191.466V189.386H380.363V191.466H382.417ZM390.737 195.626V189.386H388.657V195.626H390.737Z" fill="black"/>
<path d="M167 207.274H182.08V208.548H167V207.274Z" fill="black"/>
<g filter="url(#filter7_ii_24_134)">
<circle cx="144" cy="240" r="8" fill="#C3C3C3"/>
</g>
<circle cx="144" cy="240" r="6" fill="white"/>
<path d="M180.754 248V239.706H178.674V248H180.754ZM170.354 237.626V231.386H178.674V229.306H168.3V248H170.354V239.706H178.674V237.626H170.354ZM180.754 237.626V231.386H178.674V237.626H180.754ZM191.676 248.026V245.946H185.436V248.026H191.676ZM193.756 245.946V243.866H191.676V245.946H193.756ZM191.676 237.626V235.546H185.436V237.626H191.676ZM193.756 241.786V237.626H191.676V239.706H185.436V237.626H183.382V245.946H185.436V241.786H193.756ZM204.676 245.946V243.866H202.622V245.946H204.676ZM202.596 243.866V241.786H200.516V243.866H202.596ZM198.436 245.946V243.866H196.382V245.946H198.436ZM202.622 248.026V245.946H198.436V248.026H202.622ZM200.516 241.786V239.706H198.436V241.786H200.516ZM204.676 239.706V237.626H202.622V239.706H204.676ZM202.622 237.626V235.546H198.436V237.626H202.622ZM198.436 239.706V237.626H196.382V239.706H198.436ZM211.434 237.626V235.546H209.354V231.386H207.3V245.946H209.354V237.626H211.434ZM211.434 248.026V245.946H209.354V248.026H211.434ZM222.348 237.626V235.52H216.108V237.626H222.348ZM216.108 245.946V241.76H214.054V245.946H216.108ZM222.348 237.626V239.706H216.108V241.76H222.348V245.946H216.108V248H224.428V237.626H222.348ZM227.054 235.52V248H229.108V237.626H231.188V235.52H227.054ZM237.942 237.626V235.546H235.862V231.386H233.808V245.946H235.862V237.626H237.942ZM237.942 248.026V245.946H235.862V248.026H237.942ZM250.383 237.626V235.546H248.303V231.386H246.249V245.946H248.303V237.626H250.383ZM250.383 248.026V245.946H248.303V248.026H250.383ZM255.057 229.306H253.003V248H255.057V239.706H257.137V237.626H255.057V229.306ZM261.297 237.626V235.546H257.137V237.626H261.297ZM263.377 248.026V237.626H261.297V248.026H263.377ZM274.297 248.026V245.946H268.057V248.026H274.297ZM276.377 245.946V243.866H274.297V245.946H276.377ZM274.297 237.626V235.546H268.057V237.626H274.297ZM276.377 241.786V237.626H274.297V239.706H268.057V237.626H266.003V245.946H268.057V241.786H276.377ZM295.065 245.946V243.866H292.985V245.946H295.065ZM286.745 245.946V237.626H284.691V245.946H286.745ZM292.985 248.026V245.946H286.745V248.026H292.985ZM292.985 237.626V235.546H286.745V237.626H292.985ZM295.065 239.706V237.626H292.985V239.706H295.065ZM305.985 248.026V245.946H299.745V248.026H305.985ZM299.745 245.946V237.626H297.691V245.946H299.745ZM305.985 237.626V235.546H299.745V237.626H305.985ZM308.065 245.946V237.626H305.985V245.946H308.065ZM318.985 248.026V237.626H316.931V248.026H318.985ZM310.691 235.546V248H312.745V237.626H316.931V235.546H310.691ZM325.225 248.026V237.626H323.145V248.026H325.225ZM323.145 237.626V235.546H318.985V237.626H323.145ZM329.909 237.626H336.149V235.546H327.855V252.16H329.909V248H336.149V245.946H329.909V237.626ZM338.229 245.946V237.626H336.149V245.946H338.229ZM347.095 248.026V245.946H342.909V248.026H347.095ZM342.909 245.946V235.546H340.855V245.946H342.909ZM349.149 235.546V243.866H347.069V245.946H349.149V248H351.229V235.546H349.149ZM357.989 237.626V235.546H355.909V231.386H353.855V245.946H355.909V237.626H357.989ZM357.989 248.026V245.946H355.909V248.026H357.989ZM368.903 248.026V245.946H362.663V248.026H368.903ZM370.983 245.946V243.866H368.903V245.946H370.983ZM368.903 237.626V235.546H362.663V237.626H368.903ZM370.983 241.786V237.626H368.903V239.706H362.663V237.626H360.609V245.946H362.663V241.786H370.983ZM373.609 235.52V248H375.663V237.626H377.743V235.52H373.609ZM388.104 248V235.52H386.05V248H388.104ZM388.104 231.386V229.306H386.05V231.386H388.104ZM392.776 235.546H390.722V248H392.776V239.706H394.856V237.626H392.776V235.546ZM401.096 248.026V237.626H399.016V248.026H401.096ZM399.016 237.626V235.546H394.856V237.626H399.016ZM417.703 245.946V241.786H415.649V245.946H417.703ZM411.463 233.466V229.306H409.409V248H411.463V237.626H413.543V233.466H411.463ZM419.783 241.786V237.626H417.703V241.786H419.783ZM421.863 229.306V233.466H419.783V237.626H421.863V248H423.943V229.306H421.863ZM415.623 241.786V237.626H413.543V241.786H415.623ZM434.867 248.026V245.946H428.627V248.026H434.867ZM436.947 245.946V239.706H434.867V245.946H436.947ZM428.627 245.946V243.866H426.573V245.946H428.627ZM434.867 231.386V229.306H428.627V231.386H434.867ZM436.947 233.466V231.386H434.867V233.466H436.947ZM428.627 237.626V231.386H426.573V237.626H428.627ZM434.867 239.706V237.626H428.627V239.706H434.867ZM439.573 241.11V243.164H449.947V241.11H439.573ZM462.922 233.466V231.386H460.842V233.466H462.922ZM454.602 231.386H460.842V229.306H452.548V248H460.842V245.946H454.602V231.386ZM462.922 245.946V243.866H460.842V245.946H462.922ZM465.002 243.866V233.466H462.922V243.866H465.002ZM469.684 245.946V231.386H467.63V245.946H469.684ZM478.004 248.026V245.946H469.684V248.026H478.004ZM480.084 245.946V231.386H478.004V245.946H480.084ZM478.004 231.386V229.306H469.684V231.386H478.004ZM491.006 248.026V245.946H484.766V248.026H491.006ZM493.086 245.946V239.706H491.006V245.946H493.086ZM484.766 245.946V243.866H482.712V245.946H484.766ZM491.006 231.386V229.306H484.766V231.386H491.006ZM493.086 233.466V231.386H491.006V233.466H493.086ZM484.766 237.626V231.386H482.712V237.626H484.766ZM491.006 239.706V237.626H484.766V239.706H491.006ZM509.694 248.026V237.626H507.64V248.026H509.694ZM501.4 235.546V248H503.454V237.626H507.64V235.546H501.4ZM515.934 248.026V237.626H513.854V248.026H515.934ZM513.854 237.626V235.546H509.694V237.626H513.854ZM526.858 248.026V245.946H520.618V248.026H526.858ZM520.618 245.946V237.626H518.564V245.946H520.618ZM526.858 237.626V235.546H520.618V237.626H526.858ZM528.938 245.946V237.626H526.858V245.946H528.938ZM533.618 245.946V237.626H531.564V245.946H533.618ZM539.858 229.306V235.52H533.618V237.626H539.858V245.946H533.618V248H541.938V229.306H539.858ZM552.858 248.026V245.946H546.618V248.026H552.858ZM554.938 245.946V243.866H552.858V245.946H554.938ZM552.858 237.626V235.546H546.618V237.626H552.858ZM554.938 241.786V237.626H552.858V239.706H546.618V237.626H544.564V245.946H546.618V241.786H554.938ZM563.778 243.866V239.706H561.698V243.866H563.778ZM565.858 239.706V237.626H563.778V239.706H565.858ZM563.778 248V245.946H561.698V248H563.778ZM565.858 231.386V229.306H559.618V231.386H565.858ZM559.618 233.466V231.386H557.564V233.466H559.618ZM567.938 237.626V231.386H565.858V237.626H567.938Z" fill="black"/>
<path d="M167 249.274H182.08V250.548H167V249.274Z" fill="black"/>
<g filter="url(#filter8_ii_24_134)">
<circle cx="144" cy="282" r="8" fill="#C3C3C3"/>
</g>
<circle cx="144" cy="282" r="6" fill="white"/>
<path d="M178.674 290.026V287.946H170.354V290.026H178.674ZM180.754 287.946V285.866H178.674V287.946H180.754ZM180.754 275.466V273.386H178.674V275.466H180.754ZM178.674 273.386V271.306H170.354V273.386H178.674ZM170.354 287.946V273.386H168.3V287.946H170.354ZM185.436 290V271.306H183.382V290H185.436ZM196.348 290.026V287.946H190.108V290.026H196.348ZM190.108 287.946V279.626H188.054V287.946H190.108ZM196.348 279.626V277.546H190.108V279.626H196.348ZM198.428 287.946V279.626H196.348V287.946H198.428ZM209.348 287.946V285.866H207.294V287.946H209.348ZM207.268 285.866V283.786H205.188V285.866H207.268ZM203.108 287.946V285.866H201.054V287.946H203.108ZM207.294 290.026V287.946H203.108V290.026H207.294ZM205.188 283.786V281.706H203.108V283.786H205.188ZM209.348 281.706V279.626H207.294V281.706H209.348ZM207.294 279.626V277.546H203.108V279.626H207.294ZM203.108 281.706V279.626H201.054V281.706H203.108ZM220.266 290.026V287.946H214.026V290.026H220.266ZM222.346 287.946V285.866H220.266V287.946H222.346ZM220.266 279.626V277.546H214.026V279.626H220.266ZM222.346 283.786V279.626H220.266V281.706H214.026V279.626H211.972V287.946H214.026V283.786H222.346ZM238.953 279.626V277.52H232.713V279.626H238.953ZM232.713 287.946V283.76H230.659V287.946H232.713ZM238.953 279.626V281.706H232.713V283.76H238.953V287.946H232.713V290H241.033V279.626H238.953ZM245.713 290V271.306H243.659V290H245.713ZM250.385 290V271.306H248.331V290H250.385ZM260.745 279.626H266.985V277.546H258.691V294.16H260.745V290H266.985V287.946H260.745V279.626ZM269.065 287.946V279.626H266.985V287.946H269.065ZM271.691 277.52V290H273.745V279.626H275.825V277.52H271.691ZM286.739 290.026V287.946H280.499V290.026H286.739ZM280.499 287.946V279.626H278.445V287.946H280.499ZM286.739 279.626V277.546H280.499V279.626H286.739ZM288.819 287.946V279.626H286.739V287.946H288.819ZM299.739 294.16V292.08H291.445V294.16H299.739ZM293.499 287.946V279.626H291.445V287.946H293.499ZM293.499 277.546V279.626H299.739V287.946H293.499V290H299.739V292.08H301.819V277.546H293.499ZM304.445 277.52V290H306.499V279.626H308.579V277.52H304.445ZM319.492 279.626V277.52H313.252V279.626H319.492ZM313.252 287.946V283.76H311.198V287.946H313.252ZM319.492 279.626V281.706H313.252V283.76H319.492V287.946H313.252V290H321.572V279.626H319.492ZM332.492 290.026V279.626H330.438V290.026H332.492ZM324.198 277.546V290H326.252V279.626H330.438V277.546H324.198ZM338.732 290.026V279.626H336.652V290.026H338.732ZM336.652 279.626V277.546H332.492V279.626H336.652ZM349.657 287.946V285.866H347.603V287.946H349.657ZM347.577 285.866V283.786H345.497V285.866H347.577ZM343.417 287.946V285.866H341.363V287.946H343.417ZM347.603 290.026V287.946H343.417V290.026H347.603ZM345.497 283.786V281.706H343.417V283.786H345.497ZM349.657 281.706V279.626H347.603V281.706H349.657ZM347.603 279.626V277.546H343.417V279.626H347.603ZM343.417 281.706V279.626H341.363V281.706H343.417ZM366.262 279.626V277.52H360.022V279.626H366.262ZM360.022 287.946V283.76H357.968V287.946H360.022ZM366.262 279.626V281.706H360.022V283.76H366.262V287.946H360.022V290H368.342V279.626H366.262ZM373.022 277.546H370.968V290H373.022V281.706H375.102V279.626H373.022V277.546ZM381.342 290.026V279.626H379.262V290.026H381.342ZM379.262 279.626V277.546H375.102V279.626H379.262ZM386.022 287.946V279.626H383.968V287.946H386.022ZM392.262 271.306V277.52H386.022V279.626H392.262V287.946H386.022V290H394.342V271.306H392.262ZM404.709 290V271.306H402.655V290H404.709ZM415.621 290.026V287.946H409.381V290.026H415.621ZM409.381 287.946V279.626H407.327V287.946H409.381ZM415.621 279.626V277.546H409.381V279.626H415.621ZM417.701 287.946V279.626H415.621V287.946H417.701ZM428.621 294.16V292.08H420.327V294.16H428.621ZM422.381 287.946V279.626H420.327V287.946H422.381ZM422.381 277.546V279.626H428.621V287.946H422.381V290H428.621V292.08H430.701V277.546H422.381ZM447.309 290.026V287.946H441.069V290.026H447.309ZM441.069 287.946V279.626H439.015V287.946H441.069ZM447.309 279.626V277.546H441.069V279.626H447.309ZM449.389 287.946V279.626H447.309V287.946H449.389ZM454.069 277.546H452.015V290H454.069V281.706H456.149V279.626H454.069V277.546ZM462.389 290.026V279.626H460.309V290.026H462.389ZM460.309 279.626V277.546H456.149V279.626H460.309ZM478.996 279.626V277.52H472.756V279.626H478.996ZM472.756 287.946V283.76H470.702V287.946H472.756ZM478.996 279.626V281.706H472.756V283.76H478.996V287.946H472.756V290H481.076V279.626H478.996ZM491.996 287.946V285.866H489.942V287.946H491.996ZM489.916 285.866V283.786H487.836V285.866H489.916ZM485.756 287.946V285.866H483.702V287.946H485.756ZM489.942 290.026V287.946H485.756V290.026H489.942ZM487.836 283.786V281.706H485.756V283.786H487.836ZM491.996 281.706V279.626H489.942V281.706H491.996ZM489.942 279.626V277.546H485.756V279.626H489.942ZM485.756 281.706V279.626H483.702V281.706H485.756ZM508.602 279.626V277.52H502.362V279.626H508.602ZM502.362 287.946V283.76H500.308V287.946H502.362ZM508.602 279.626V281.706H502.362V283.76H508.602V287.946H502.362V290H510.682V279.626H508.602ZM515.362 277.546H513.308V290H515.362V281.706H517.442V279.626H515.362V277.546ZM523.682 290.026V279.626H521.602V290.026H523.682ZM521.602 279.626V277.546H517.442V279.626H521.602ZM534.602 290.026V287.946H528.362V290.026H534.602ZM528.362 287.946V279.626H526.308V287.946H528.362ZM534.602 279.626V277.546H528.362V279.626H534.602ZM536.682 287.946V279.626H534.602V287.946H536.682ZM543.442 279.626V277.546H541.362V273.386H539.308V287.946H541.362V279.626H543.442ZM543.442 290.026V287.946H541.362V290.026H543.442ZM548.116 271.306H546.062V290H548.116V281.706H550.196V279.626H548.116V271.306ZM554.356 279.626V277.546H550.196V279.626H554.356ZM556.436 290.026V279.626H554.356V290.026H556.436ZM567.356 290.026V287.946H561.116V290.026H567.356ZM569.436 287.946V285.866H567.356V287.946H569.436ZM567.356 279.626V277.546H561.116V279.626H567.356ZM569.436 283.786V279.626H567.356V281.706H561.116V279.626H559.062V287.946H561.116V283.786H569.436ZM572.062 277.52V290H574.116V279.626H576.196V277.52H572.062ZM590.743 290.026V287.946H586.557V290.026H590.743ZM586.557 287.946V277.546H584.503V287.946H586.557ZM592.797 277.546V285.866H590.717V287.946H592.797V290H594.877V277.546H592.797ZM605.797 287.946V285.866H603.743V287.946H605.797ZM603.717 285.866V283.786H601.637V285.866H603.717ZM599.557 287.946V285.866H597.503V287.946H599.557ZM603.743 290.026V287.946H599.557V290.026H603.743ZM601.637 283.786V281.706H599.557V283.786H601.637ZM605.797 281.706V279.626H603.743V281.706H605.797ZM603.743 279.626V277.546H599.557V279.626H603.743ZM599.557 281.706V279.626H597.503V281.706H599.557ZM616.715 290.026V287.946H610.475V290.026H616.715ZM618.795 287.946V285.866H616.715V287.946H618.795ZM616.715 279.626V277.546H610.475V279.626H616.715ZM618.795 283.786V279.626H616.715V281.706H610.475V279.626H608.421V287.946H610.475V283.786H618.795ZM621.421 277.52V290H623.475V279.626H625.555V277.52H621.421ZM634.389 285.866V281.706H632.309V285.866H634.389ZM636.469 281.706V279.626H634.389V281.706H636.469ZM634.389 290V287.946H632.309V290H634.389ZM636.469 273.386V271.306H630.229V273.386H636.469ZM630.229 275.466V273.386H628.175V275.466H630.229ZM638.549 279.626V273.386H636.469V279.626H638.549Z" fill="black"/>
<path d="M167 291.274H182.08V292.548H167V291.274Z" fill="black"/>
<defs>
<filter id="filter0_iii_24_134" x="0" y="0" width="793" height="423" filterUnits="userSpaceOnUse" color-interpolation-filters="sRGB">
<feFlood flood-opacity="0" result="BackgroundImageFix"/>
<feBlend mode="normal" in="SourceGraphic" in2="BackgroundImageFix" result="shape"/>
<feColorMatrix in="SourceAlpha" type="matrix" values="0 0 0 0 0 0 0 0 0 0 0 0 0 0 0 0 0 0 127 0" result="hardAlpha"/>
<feOffset dx="-4" dy="-4"/>
<feComposite in2="hardAlpha" operator="arithmetic" k2="-1" k3="1"/>
<feColorMatrix type="matrix" values="0 0 0 0 0.495833 0 0 0 0 0.495833 0 0 0 0 0.495833 0 0 0 1 0"/>
<feBlend mode="normal" in2="shape" result="effect1_innerShadow_24_134"/>
<feColorMatrix in="SourceAlpha" type="matrix" values="0 0 0 0 0 0 0 0 0 0 0 0 0 0 0 0 0 0 127 0" result="hardAlpha"/>
<feOffset dx="2" dy="2"/>
<feComposite in2="hardAlpha" operator="arithmetic" k2="-1" k3="1"/>
<feColorMatrix type="matrix" values="0 0 0 0 0.941667 0 0 0 0 0.941667 0 0 0 0 0.941667 0 0 0 1 0"/>
<feBlend mode="normal" in2="effect1_innerShadow_24_134" result="effect2_innerShadow_24_134"/>
<feColorMatrix in="SourceAlpha" type="matrix" values="0 0 0 0 0 0 0 0 0 0 0 0 0 0 0 0 0 0 127 0" result="hardAlpha"/>
<feOffset dx="-2" dy="-2"/>
<feComposite in2="hardAlpha" operator="arithmetic" k2="-1" k3="1"/>
<feColorMatrix type="matrix" values="0 0 0 0 0.15 0 0 0 0 0.15 0 0 0 0 0.15 0 0 0 1 0"/>
<feBlend mode="normal" in2="effect2_innerShadow_24_134" result="effect3_innerShadow_24_134"/>
</filter>
<filter id="filter1_iii_24_134" x="751" y="9" width="32" height="32" filterUnits="userSpaceOnUse" color-interpolation-filters="sRGB">
<feFlood flood-opacity="0" result="BackgroundImageFix"/>
<feBlend mode="normal" in="SourceGraphic" in2="BackgroundImageFix" result="shape"/>
<feColorMatrix in="SourceAlpha" type="matrix" values="0 0 0 0 0 0 0 0 0 0 0 0 0 0 0 0 0 0 127 0" result="hardAlpha"/>
<feOffset dx="-4" dy="-4"/>
<feComposite in2="hardAlpha" operator="arithmetic" k2="-1" k3="1"/>
<feColorMatrix type="matrix" values="0 0 0 0 0.495833 0 0 0 0 0.495833 0 0 0 0 0.495833 0 0 0 1 0"/>
<feBlend mode="normal" in2="shape" result="effect1_innerShadow_24_134"/>
<feColorMatrix in="SourceAlpha" type="matrix" values="0 0 0 0 0 0 0 0 0 0 0 0 0 0 0 0 0 0 127 0" result="hardAlpha"/>
<feOffset dx="2" dy="2"/>
<feComposite in2="hardAlpha" operator="arithmetic" k2="-1" k3="1"/>
<feColorMatrix type="matrix" values="0 0 0 0 0.941667 0 0 0 0 0.941667 0 0 0 0 0.941667 0 0 0 1 0"/>
<feBlend mode="normal" in2="effect1_innerShadow_24_134" result="effect2_innerShadow_24_134"/>
<feColorMatrix in="SourceAlpha" type="matrix" values="0 0 0 0 0 0 0 0 0 0 0 0 0 0 0 0 0 0 127 0" result="hardAlpha"/>
<feOffset dx="-2" dy="-2"/>
<feComposite in2="hardAlpha" operator="arithmetic" k2="-1" k3="1"/>
<feColorMatrix type="matrix" values="0 0 0 0 0.15 0 0 0 0 0.15 0 0 0 0 0.15 0 0 0 1 0"/>
<feBlend mode="normal" in2="effect2_innerShadow_24_134" result="effect3_innerShadow_24_134"/>
</filter>
<filter id="filter2_iii_24_134" x="152" y="343" width="147" height="48" filterUnits="userSpaceOnUse" color-interpolation-filters="sRGB">
<feFlood flood-opacity="0" result="BackgroundImageFix"/>
<feBlend mode="normal" in="SourceGraphic" in2="BackgroundImageFix" result="shape"/>
<feColorMatrix in="SourceAlpha" type="matrix" values="0 0 0 0 0 0 0 0 0 0 0 0 0 0 0 0 0 0 127 0" result="hardAlpha"/>
<feOffset dx="-4" dy="-4"/>
<feComposite in2="hardAlpha" operator="arithmetic" k2="-1" k3="1"/>
<feColorMatrix type="matrix" values="0 0 0 0 0.495833 0 0 0 0 0.495833 0 0 0 0 0.495833 0 0 0 1 0"/>
<feBlend mode="normal" in2="shape" result="effect1_innerShadow_24_134"/>
<feColorMatrix in="SourceAlpha" type="matrix" values="0 0 0 0 0 0 0 0 0 0 0 0 0 0 0 0 0 0 127 0" result="hardAlpha"/>
<feOffset dx="2" dy="2"/>
<feComposite in2="hardAlpha" operator="arithmetic" k2="-1" k3="1"/>
<feColorMatrix type="matrix" values="0 0 0 0 0.941667 0 0 0 0 0.941667 0 0 0 0 0.941667 0 0 0 1 0"/>
<feBlend mode="normal" in2="effect1_innerShadow_24_134" result="effect2_innerShadow_24_134"/>
<feColorMatrix in="SourceAlpha" type="matrix" values="0 0 0 0 0 0 0 0 0 0 0 0 0 0 0 0 0 0 127 0" result="hardAlpha"/>
<feOffset dx="-2" dy="-2"/>
<feComposite in2="hardAlpha" operator="arithmetic" k2="-1" k3="1"/>
<feColorMatrix type="matrix" values="0 0 0 0 0.15 0 0 0 0 0.15 0 0 0 0 0.15 0 0 0 1 0"/>
<feBlend mode="normal" in2="effect2_innerShadow_24_134" result="effect3_innerShadow_24_134"/>
</filter>
<filter id="filter3_iii_24_134" x="323" y="343" width="147" height="48" filterUnits="userSpaceOnUse" color-interpolation-filters="sRGB">
<feFlood flood-opacity="0" result="BackgroundImageFix"/>
<feBlend mode="normal" in="SourceGraphic" in2="BackgroundImageFix" result="shape"/>
<feColorMatrix in="SourceAlpha" type="matrix" values="0 0 0 0 0 0 0 0 0 0 0 0 0 0 0 0 0 0 127 0" result="hardAlpha"/>
<feOffset dx="-4" dy="-4"/>
<feComposite in2="hardAlpha" operator="arithmetic" k2="-1" k3="1"/>
<feColorMatrix type="matrix" values="0 0 0 0 0.495833 0 0 0 0 0.495833 0 0 0 0 0.495833 0 0 0 1 0"/>
<feBlend mode="normal" in2="shape" result="effect1_innerShadow_24_134"/>
<feColorMatrix in="SourceAlpha" type="matrix" values="0 0 0 0 0 0 0 0 0 0 0 0 0 0 0 0 0 0 127 0" result="hardAlpha"/>
<feOffset dx="2" dy="2"/>
<feComposite in2="hardAlpha" operator="arithmetic" k2="-1" k3="1"/>
<feColorMatrix type="matrix" values="0 0 0 0 0.941667 0 0 0 0 0.941667 0 0 0 0 0.941667 0 0 0 1 0"/>
<feBlend mode="normal" in2="effect1_innerShadow_24_134" result="effect2_innerShadow_24_134"/>
<feColorMatrix in="SourceAlpha" type="matrix" values="0 0 0 0 0 0 0 0 0 0 0 0 0 0 0 0 0 0 127 0" result="hardAlpha"/>
<feOffset dx="-2" dy="-2"/>
<feComposite in2="hardAlpha" operator="arithmetic" k2="-1" k3="1"/>
<feColorMatrix type="matrix" values="0 0 0 0 0.15 0 0 0 0 0.15 0 0 0 0 0.15 0 0 0 1 0"/>
<feBlend mode="normal" in2="effect2_innerShadow_24_134" result="effect3_innerShadow_24_134"/>
</filter>
<filter id="filter4_iii_24_134" x="494" y="343" width="147" height="48" filterUnits="userSpaceOnUse" color-interpolation-filters="sRGB">
<feFlood flood-opacity="0" result="BackgroundImageFix"/>
<feBlend mode="normal" in="SourceGraphic" in2="BackgroundImageFix" result="shape"/>
<feColorMatrix in="SourceAlpha" type="matrix" values="0 0 0 0 0 0 0 0 0 0 0 0 0 0 0 0 0 0 127 0" result="hardAlpha"/>
<feOffset dx="-4" dy="-4"/>
<feComposite in2="hardAlpha" operator="arithmetic" k2="-1" k3="1"/>
<feColorMatrix type="matrix" values="0 0 0 0 0.495833 0 0 0 0 0.495833 0 0 0 0 0.495833 0 0 0 1 0"/>
<feBlend mode="normal" in2="shape" result="effect1_innerShadow_24_134"/>
<feColorMatrix in="SourceAlpha" type="matrix" values="0 0 0 0 0 0 0 0 0 0 0 0 0 0 0 0 0 0 127 0" result="hardAlpha"/>
<feOffset dx="2" dy="2"/>
<feComposite in2="hardAlpha" operator="arithmetic" k2="-1" k3="1"/>
<feColorMatrix type="matrix" values="0 0 0 0 0.941667 0 0 0 0 0.941667 0 0 0 0 0.941667 0 0 0 1 0"/>
<feBlend mode="normal" in2="effect1_innerShadow_24_134" result="effect2_innerShadow_24_134"/>
<feColorMatrix in="SourceAlpha" type="matrix" values="0 0 0 0 0 0 0 0 0 0 0 0 0 0 0 0 0 0 127 0" result="hardAlpha"/>
<feOffset dx="-2" dy="-2"/>
<feComposite in2="hardAlpha" operator="arithmetic" k2="-1" k3="1"/>
<feColorMatrix type="matrix" values="0 0 0 0 0.15 0 0 0 0 0.15 0 0 0 0 0.15 0 0 0 1 0"/>
<feBlend mode="normal" in2="effect2_innerShadow_24_134" result="effect3_innerShadow_24_134"/>
</filter>
<filter id="filter5_ii_24_134" x="136" y="148" width="17" height="17" filterUnits="userSpaceOnUse" color-interpolation-filters="sRGB">
<feFlood flood-opacity="0" result="BackgroundImageFix"/>
<feBlend mode="normal" in="SourceGraphic" in2="BackgroundImageFix" result="shape"/>
<feColorMatrix in="SourceAlpha" type="matrix" values="0 0 0 0 0 0 0 0 0 0 0 0 0 0 0 0 0 0 127 0" result="hardAlpha"/>
<feMorphology radius="1" operator="erode" in="SourceAlpha" result="effect1_innerShadow_24_134"/>
<feOffset dx="2" dy="2"/>
<feComposite in2="hardAlpha" operator="arithmetic" k2="-1" k3="1"/>
<feColorMatrix type="matrix" values="0 0 0 0 0.495833 0 0 0 0 0.495833 0 0 0 0 0.495833 0 0 0 1 0"/>
<feBlend mode="normal" in2="shape" result="effect1_innerShadow_24_134"/>
<feColorMatrix in="SourceAlpha" type="matrix" values="0 0 0 0 0 0 0 0 0 0 0 0 0 0 0 0 0 0 127 0" result="hardAlpha"/>
<feOffset dx="-3" dy="-3"/>
<feComposite in2="hardAlpha" operator="arithmetic" k2="-1" k3="1"/>
<feColorMatrix type="matrix" values="0 0 0 0 0.941667 0 0 0 0 0.941667 0 0 0 0 0.941667 0 0 0 1 0"/>
<feBlend mode="normal" in2="effect1_innerShadow_24_134" result="effect2_innerShadow_24_134"/>
</filter>
<filter id="filter6_ii_24_134" x="136" y="190" width="17" height="17" filterUnits="userSpaceOnUse" color-interpolation-filters="sRGB">
<feFlood flood-opacity="0" result="BackgroundImageFix"/>
<feBlend mode="normal" in="SourceGraphic" in2="BackgroundImageFix" result="shape"/>
<feColorMatrix in="SourceAlpha" type="matrix" values="0 0 0 0 0 0 0 0 0 0 0 0 0 0 0 0 0 0 127 0" result="hardAlpha"/>
<feMorphology radius="1" operator="erode" in="SourceAlpha" result="effect1_innerShadow_24_134"/>
<feOffset dx="2" dy="2"/>
<feComposite in2="hardAlpha" operator="arithmetic" k2="-1" k3="1"/>
<feColorMatrix type="matrix" values="0 0 0 0 0.495833 0 0 0 0 0.495833 0 0 0 0 0.495833 0 0 0 1 0"/>
<feBlend mode="normal" in2="shape" result="effect1_innerShadow_24_134"/>
<feColorMatrix in="SourceAlpha" type="matrix" values="0 0 0 0 0 0 0 0 0 0 0 0 0 0 0 0 0 0 127 0" result="hardAlpha"/>
<feOffset dx="-3" dy="-3"/>
<feComposite in2="hardAlpha" operator="arithmetic" k2="-1" k3="1"/>
<feColorMatrix type="matrix" values="0 0 0 0 0.941667 0 0 0 0 0.941667 0 0 0 0 0.941667 0 0 0 1 0"/>
<feBlend mode="normal" in2="effect1_innerShadow_24_134" result="effect2_innerShadow_24_134"/>
</filter>
<filter id="filter7_ii_24_134" x="136" y="232" width="17" height="17" filterUnits="userSpaceOnUse" color-interpolation-filters="sRGB">
<feFlood flood-opacity="0" result="BackgroundImageFix"/>
<feBlend mode="normal" in="SourceGraphic" in2="BackgroundImageFix" result="shape"/>
<feColorMatrix in="SourceAlpha" type="matrix" values="0 0 0 0 0 0 0 0 0 0 0 0 0 0 0 0 0 0 127 0" result="hardAlpha"/>
<feMorphology radius="1" operator="erode" in="SourceAlpha" result="effect1_innerShadow_24_134"/>
<feOffset dx="2" dy="2"/>
<feComposite in2="hardAlpha" operator="arithmetic" k2="-1" k3="1"/>
<feColorMatrix type="matrix" values="0 0 0 0 0.495833 0 0 0 0 0.495833 0 0 0 0 0.495833 0 0 0 1 0"/>
<feBlend mode="normal" in2="shape" result="effect1_innerShadow_24_134"/>
<feColorMatrix in="SourceAlpha" type="matrix" values="0 0 0 0 0 0 0 0 0 0 0 0 0 0 0 0 0 0 127 0" result="hardAlpha"/>
<feOffset dx="-3" dy="-3"/>
<feComposite in2="hardAlpha" operator="arithmetic" k2="-1" k3="1"/>
<feColorMatrix type="matrix" values="0 0 0 0 0.941667 0 0 0 0 0.941667 0 0 0 0 0.941667 0 0 0 1 0"/>
<feBlend mode="normal" in2="effect1_innerShadow_24_134" result="effect2_innerShadow_24_134"/>
</filter>
<filter id="filter8_ii_24_134" x="136" y="274" width="17" height="17" filterUnits="userSpaceOnUse" color-interpolation-filters="sRGB">
<feFlood flood-opacity="0" result="BackgroundImageFix"/>
<feBlend mode="normal" in="SourceGraphic" in2="BackgroundImageFix" result="shape"/>
<feColorMatrix in="SourceAlpha" type="matrix" values="0 0 0 0 0 0 0 0 0 0 0 0 0 0 0 0 0 0 127 0" result="hardAlpha"/>
<feMorphology radius="1" operator="erode" in="SourceAlpha" result="effect1_innerShadow_24_134"/>
<feOffset dx="2" dy="2"/>
<feComposite in2="hardAlpha" operator="arithmetic" k2="-1" k3="1"/>
<feColorMatrix type="matrix" values="0 0 0 0 0.495833 0 0 0 0 0.495833 0 0 0 0 0.495833 0 0 0 1 0"/>
<feBlend mode="normal" in2="shape" result="effect1_innerShadow_24_134"/>
<feColorMatrix in="SourceAlpha" type="matrix" values="0 0 0 0 0 0 0 0 0 0 0 0 0 0 0 0 0 0 127 0" result="hardAlpha"/>
<feOffset dx="-3" dy="-3"/>
<feComposite in2="hardAlpha" operator="arithmetic" k2="-1" k3="1"/>
<feColorMatrix type="matrix" values="0 0 0 0 0.941667 0 0 0 0 0.941667 0 0 0 0 0.941667 0 0 0 1 0"/>
<feBlend mode="normal" in2="effect1_innerShadow_24_134" result="effect2_innerShadow_24_134"/>
</filter>
</defs>
</svg>
