<svg width="88" height="90" viewBox="0 0 88 90" fill="none" xmlns="http://www.w3.org/2000/svg">
<g clip-path="url(#clip0_75_7277)">
<rect x="23.7344" y="26.7969" width="47.4688" height="47.4688" fill="black"/>
<rect x="43.5129" y="10.9739" width="7.91146" height="15.8229" fill="black"/>
<rect x="15.823" y="18.8854" width="7.91146" height="7.91146" fill="black"/>
<rect x="35.6016" y="18.8854" width="7.91146" height="7.91146" fill="#A0A0A0"/>
<rect x="51.4246" y="18.8854" width="7.91146" height="7.91146" fill="#A0A0A0"/>
<rect x="43.5129" y="3.0625" width="7.91146" height="7.91146" fill="#A0A0A0"/>
<rect x="79.1145" y="38.6641" width="7.91146" height="7.91146" transform="rotate(90 79.1145 38.6641)" fill="#A0A0A0"/>
<rect x="79.1145" y="54.487" width="7.91146" height="7.91146" transform="rotate(90 79.1145 54.487)" fill="#A0A0A0"/>
<rect x="94.9375" y="46.5755" width="7.91146" height="7.91146" transform="rotate(90 94.9375 46.5755)" fill="#A0A0A0"/>
<rect x="59.3359" y="82.1771" width="7.91146" height="7.91146" transform="rotate(-180 59.3359 82.1771)" fill="#A0A0A0"/>
<rect x="43.5129" y="82.1771" width="7.91146" height="7.91146" transform="rotate(-180 43.5129 82.1771)" fill="#A0A0A0"/>
<rect x="15.823" y="62.3984" width="7.91146" height="7.91146" transform="rotate(-90 15.823 62.3984)" fill="#A0A0A0"/>
<rect x="15.823" y="46.5755" width="7.91146" height="7.91146" transform="rotate(-90 15.823 46.5755)" fill="#A0A0A0"/>
<rect y="54.487" width="7.91146" height="7.91146" transform="rotate(-90 0 54.487)" fill="#A0A0A0"/>
<rect x="15.823" y="74.2656" width="7.91146" height="7.91146" fill="black"/>
<rect x="71.2031" y="18.8854" width="7.91146" height="7.91146" fill="black"/>
<rect x="71.2031" y="74.2656" width="7.91146" height="7.91146" fill="black"/>
<rect x="87.0261" y="46.5755" width="7.91146" height="15.8229" transform="rotate(90 87.0261 46.5755)" fill="black"/>
<rect x="43.5129" y="74.2656" width="7.91146" height="15.8229" fill="black"/>
<rect x="23.7344" y="46.5755" width="7.91146" height="15.8229" transform="rotate(90 23.7344 46.5755)" fill="black"/>
<rect x="31.6458" y="34.7083" width="7.91146" height="7.91146" fill="white"/>
</g>
<defs>
<clipPath id="clip0_75_7277">
<rect width="98" height="98" fill="white"/>
</clipPath>
</defs>
</svg>
