<svg width="2320" height="2320" viewBox="0 0 2320 2320" fill="none" xmlns="http://www.w3.org/2000/svg">
<g clip-path="url(#clip0_1_1066)">
<path d="M2319.54 0L0 0L0 2320H2319.54V0Z" fill="black"/>
<path d="M1162.32 297.948C1161.39 363.617 1143.3 406.081 1106.64 427.662C1090.4 437.175 1073 441.12 1055.14 441.12C1008.27 441.12 957.928 414.203 915.008 391.23C897.84 382.18 874.408 369.65 866.52 368.026C812 358.048 767.456 367.097 734.512 395.175C686.952 435.783 660.736 516.303 662.592 616.547V617.475V618.404C660.736 713.079 685.096 789.886 731.264 834.439C765.136 867.157 811.304 882.24 868.144 878.992C877.656 877.367 905.264 862.052 923.592 851.842C983.68 818.196 1051.89 779.908 1108.5 812.394C1160.93 842.561 1162.09 914.031 1162.32 937.467V938.164V1073.68H1381.79C1419.14 1073.21 1431.67 1065.09 1432.83 1063C1432.83 1063 1436.08 1055.35 1427.03 1030.98C1418.45 1008.01 1403.37 981.556 1389.91 957.888C1371.82 926.329 1357.66 901.5 1353.49 878.76C1339.34 801.024 1355.11 732.57 1399.66 680.36C1459.05 610.514 1569.48 571.762 1702.42 574.315C1835.58 571.994 1945.78 610.514 2005.41 680.592C2049.72 732.802 2065.73 801.488 2051.58 878.992C2047.4 901.732 2033.25 926.793 2015.15 958.12C2001.7 981.556 1986.38 1008.24 1978.03 1030.98C1968.98 1055.35 1972.23 1063 1972.23 1063C1973.39 1064.86 1985.92 1072.98 2023.27 1073.68H2212.58V107.438H1162.09L1162.32 297.716V297.948Z" fill="#118ACB"/>
<path d="M297.888 1157.68C321.784 1157.91 394.168 1159.07 424.792 1212.91C458.432 1271.85 415.976 1346.1 381.64 1405.74C371.432 1423.84 357.28 1448.43 355.424 1456.79C345.912 1509 354.728 1549.84 382.104 1582.09C423.864 1631.05 511.56 1659.13 616.656 1657.28H617.584H618.512C723.84 1659.13 811.536 1631.29 853.296 1582.09C880.672 1549.84 889.256 1509 879.744 1456.79C878.12 1448.43 863.968 1423.84 853.528 1405.74C819.424 1346.1 776.736 1271.61 810.376 1212.67C841 1158.84 913.384 1157.91 937.28 1157.45H937.976H1074.16V938.164C1073.46 899.644 1065.58 889.666 1064.42 888.738C1063.26 888.506 1055.14 886.881 1033.56 895.003C1012.91 902.893 989.48 915.887 966.976 928.65C930.088 949.302 901.088 965.545 873.48 967.169C792.28 971.81 721.984 947.678 670.248 897.788C606.216 836.063 572.344 736.515 574.432 617.243C572.112 488.922 608.768 386.125 677.44 327.65C730.8 282.168 801.792 266.157 882.76 280.776C904.336 284.721 928.696 297.716 957 312.799C980.2 325.097 1006.42 339.252 1028.92 346.677C1054.21 355.263 1061.63 351.086 1061.86 350.854C1065.11 348.998 1073.46 335.539 1073.93 296.323L1073.7 106.741H107.416V1156.98H297.656L297.888 1157.68Z" fill="#FF2800"/>
<path d="M2022.34 1162.09C1998.45 1161.86 1926.06 1160.7 1895.44 1106.86C1861.8 1047.92 1904.26 973.667 1938.36 914.031C1948.1 897.092 1962.95 871.102 1964.58 862.749C1974.09 810.538 1965.5 769.698 1938.13 737.444C1896.37 688.482 1808.67 660.404 1703.34 662.493H1702.42H1701.49C1596.39 660.404 1508.7 688.482 1466.94 737.444C1439.56 769.698 1430.98 810.538 1440.49 862.749C1442.11 871.102 1456.96 896.859 1466.7 914.031C1500.81 973.667 1543.26 1047.92 1509.62 1106.86C1479 1160.7 1406.38 1161.62 1382.72 1162.09H1382.02H1246.07L1246.3 1381.37C1246.77 1418.73 1254.89 1431.49 1256.74 1432.42C1256.74 1432.42 1264.4 1435.67 1288.76 1426.62C1311.73 1418.04 1338.18 1402.95 1361.84 1389.49C1393.39 1371.39 1418.22 1357.24 1441.18 1353.06C1518.67 1338.91 1587.34 1354.92 1639.54 1399.24C1709.38 1458.64 1748.12 1569.1 1745.57 1702.06C1748.12 1835.02 1709.38 1945.25 1639.54 2004.88C1587.34 2049.2 1518.67 2065.21 1440.95 2051.06C1417.98 2046.88 1393.16 2032.73 1361.61 2014.63C1338.18 2001.17 1311.5 1985.85 1288.53 1977.5C1264.17 1968.45 1256.51 1971.7 1256.51 1971.7C1254.66 1972.86 1246.54 1985.39 1246.07 2022.75V2212.79H2212.12V1162.09H2022.34Z" fill="#67CA2F"/>
<path d="M1158.14 2021.82C1158.38 1997.92 1159.54 1925.52 1213.13 1894.89C1272.06 1861.24 1346.3 1903.71 1405.92 1938.05C1423.09 1947.8 1448.84 1962.65 1457.19 1964.27C1509.16 1973.79 1550.22 1965.2 1582.47 1937.82C1631.42 1896.05 1659.5 1808.34 1657.41 1703.22V1702.29V1701.36C1659.5 1596.25 1631.42 1508.53 1582.47 1466.77C1550.22 1439.38 1509.16 1430.57 1457.19 1440.08C1448.84 1441.7 1422.86 1456.56 1405.92 1466.3C1346.3 1500.41 1272.06 1542.88 1213.13 1509.23C1159.3 1478.6 1158.38 1405.97 1158.14 1382.3V1381.84V1246.09H938.44C901.088 1246.79 888.56 1254.67 887.4 1256.76C887.4 1256.76 884.152 1264.42 893.2 1289.02C901.784 1311.99 917.096 1338.68 930.552 1362.11C948.648 1393.44 962.8 1418.27 966.976 1441.01C981.128 1518.74 965.12 1587.43 920.808 1639.64C861.416 1709.49 750.984 1748.24 617.816 1745.92C484.88 1748.24 374.448 1709.49 315.056 1639.64C270.744 1587.43 254.736 1518.74 268.888 1441.01C273.064 1418.27 287.216 1393.44 305.312 1361.88C318.768 1338.44 334.08 1311.76 342.432 1288.79C351.48 1264.19 348.232 1256.76 348.232 1256.53C347.072 1254.67 334.544 1246.55 297.192 1245.86H107.648V2212.33H1158.38V2021.82H1158.14Z" fill="#FFC900"/>
</g>
<defs>
<clipPath id="clip0_1_1066">
<rect width="2320" height="2320" fill="white"/>
</clipPath>
</defs>
</svg>
