<?xml version="1.0" encoding="UTF-8"?>
<!-- Generator: Adobe Illustrator 23.1.0, SVG Export Plug-In . SVG Version: 6.00 Build 0)  -->
<svg version="1.1" id="Layer_1" inkscape:version="0.92.3 (2405546, 2018-03-11)" sodipodi:docname="Microsoft_Office_(1995).svg" xmlns:cc="http://creativecommons.org/ns#" xmlns:dc="http://purl.org/dc/elements/1.1/" xmlns:inkscape="http://www.inkscape.org/namespaces/inkscape" xmlns:rdf="http://www.w3.org/1999/02/22-rdf-syntax-ns#" xmlns:sodipodi="http://sodipodi.sourceforge.net/DTD/sodipodi-0.dtd" xmlns:svg="http://www.w3.org/2000/svg" xmlns="http://www.w3.org/2000/svg" xmlns:xlink="http://www.w3.org/1999/xlink" x="0px" y="0px" viewBox="0 0 1000 999.8" style="enable-background:new 0 0 1000 999.8;" xml:space="preserve">
<style type="text/css">
	.st0{fill:#118ACB;}
	.st1{fill:#FF2800;}
	.st2{fill:#67CA2F;}
	.st3{fill:#FFC900;}
</style>
<rect width="999.8" height="999.8"/>
<path class="st0" d="M501,128.4c-0.4,28.3-8.2,46.6-24,55.9c-7,4.1-14.5,5.8-22.2,5.8c-20.2,0-41.9-11.6-60.4-21.5  c-7.4-3.9-17.5-9.3-20.9-10c-23.5-4.3-42.7-0.4-56.9,11.7c-20.5,17.5-31.8,52.2-31,95.4l0,0.4l0,0.4c-0.8,40.8,9.7,73.9,29.6,93.1  c14.6,14.1,34.5,20.6,59,19.2c4.1-0.7,16-7.3,23.9-11.7c25.9-14.5,55.3-31,79.7-17c22.6,13,23.1,43.8,23.2,53.9l0,0.3v58.4h94.6  c16.1-0.2,21.5-3.7,22-4.6c0,0,1.4-3.3-2.5-13.8c-3.7-9.9-10.2-21.3-16-31.5c-7.8-13.6-13.9-24.3-15.7-34.1  c-6.1-33.5,0.7-63,19.9-85.5c25.6-30.1,73.2-46.8,130.5-45.7c57.4-1,104.9,15.6,130.6,45.8c19.1,22.5,26,52.1,19.9,85.5  c-1.8,9.8-7.9,20.6-15.7,34.1c-5.8,10.1-12.4,21.6-16,31.4c-3.9,10.5-2.5,13.8-2.5,13.8c0.5,0.8,5.9,4.3,22,4.6l81.6,0l0-416.4  H500.9l0.1,82L501,128.4z"/>
<path class="st1" d="M128.4,498.9c10.3,0.1,41.5,0.6,54.7,23.8c14.5,25.4-3.8,57.4-18.6,83.1c-4.4,7.8-10.5,18.4-11.3,22  c-4.1,22.5-0.3,40.1,11.5,54c18,21.1,55.8,33.2,101.1,32.4l0.4,0l0.4,0c45.4,0.8,83.2-11.2,101.2-32.4c11.8-13.9,15.5-31.5,11.4-54  c-0.7-3.6-6.8-14.2-11.3-22c-14.7-25.7-33.1-57.8-18.6-83.2c13.2-23.2,44.4-23.6,54.7-23.8l0.3,0h58.7v-94.5  c-0.3-16.6-3.7-20.9-4.2-21.3c-0.5-0.1-4-0.8-13.3,2.7c-8.9,3.4-19,9-28.7,14.5c-15.9,8.9-28.4,15.9-40.3,16.6  c-35,2-65.3-8.4-87.6-29.9c-27.6-26.6-42.2-69.5-41.3-120.9c-1-55.3,14.8-99.6,44.4-124.8c23-19.6,53.6-26.5,88.5-20.2  c9.3,1.7,19.8,7.3,32,13.8c10,5.3,21.3,11.4,31,14.6c10.9,3.7,14.1,1.9,14.2,1.8c1.4-0.8,5-6.6,5.2-23.5l-0.1-81.7H46.3v452.6l82,0  L128.4,498.9z"/>
<path class="st2" d="M871.7,500.8c-10.3-0.1-41.5-0.6-54.7-23.8c-14.5-25.4,3.8-57.4,18.5-83.1c4.2-7.3,10.6-18.5,11.3-22.1  c4.1-22.5,0.4-40.1-11.4-54c-18-21.1-55.8-33.2-101.2-32.3l-0.4,0l-0.4,0c-45.3-0.9-83.1,11.2-101.1,32.3  c-11.8,13.9-15.5,31.5-11.4,54c0.7,3.6,7.1,14.7,11.3,22.1c14.7,25.7,33,57.7,18.5,83.1c-13.2,23.2-44.5,23.6-54.7,23.8l-0.3,0  h-58.6l0.1,94.5c0.2,16.1,3.7,21.6,4.5,22c0,0,3.3,1.4,13.8-2.5c9.9-3.7,21.3-10.2,31.5-16c13.6-7.8,24.3-13.9,34.2-15.7  c33.4-6.1,63,0.8,85.5,19.9c30.1,25.6,46.8,73.2,45.7,130.5c1.1,57.3-15.6,104.8-45.7,130.5c-22.5,19.1-52.1,26-85.6,19.9  c-9.9-1.8-20.6-7.9-34.2-15.7c-10.1-5.8-21.6-12.4-31.5-16c-10.5-3.9-13.8-2.5-13.8-2.5c-0.8,0.5-4.3,5.9-4.5,22l0,81.9l416.4,0  l0-452.8l-81.8,0L871.7,500.8z"/>
<path class="st3" d="M499.2,871.3c0.1-10.3,0.6-41.5,23.7-54.7c25.4-14.5,57.4,3.8,83.1,18.6c7.4,4.2,18.5,10.6,22.1,11.3  c22.4,4.1,40.1,0.4,54-11.4c21.1-18,33.2-55.8,32.3-101.1l0-0.4l0-0.4c0.9-45.3-11.2-83.1-32.3-101.1c-13.9-11.8-31.6-15.6-54-11.5  c-3.6,0.7-14.8,7.1-22.1,11.3c-25.7,14.7-57.7,33-83.1,18.5c-23.2-13.2-23.6-44.5-23.7-54.7l0-0.2l0-58.5h-94.7  c-16.1,0.3-21.5,3.7-22,4.6c0,0-1.4,3.3,2.5,13.9c3.7,9.9,10.3,21.4,16.1,31.5c7.8,13.5,13.9,24.2,15.7,34  c6.1,33.5-0.8,63.1-19.9,85.6c-25.6,30.1-73.2,46.8-130.6,45.8c-57.3,1-104.9-15.7-130.5-45.8c-19.1-22.5-26-52.1-19.9-85.6  c1.8-9.8,7.9-20.5,15.7-34.1c5.8-10.1,12.4-21.6,16-31.5c3.9-10.6,2.5-13.8,2.5-13.9c-0.5-0.8-5.9-4.3-22-4.6l-81.7,0v416.5l452.9,0  l0-82.1L499.2,871.3z"/>
</svg>