<svg width="98" height="98" viewBox="0 0 98 98" fill="none" xmlns="http://www.w3.org/2000/svg">
<g clip-path="url(#clip0_331_9699)">
<mask id="mask0_331_9699" style="mask-type:luminance" maskUnits="userSpaceOnUse" x="0" y="0" width="98" height="98">
<path d="M98 0H0V98H98V0Z" fill="white"/>
</mask>
<g mask="url(#mask0_331_9699)">
<path d="M97.9806 0H0V98H97.9806V0Z" fill="black"/>
<path d="M49.098 12.5855C49.0587 15.3594 48.2946 17.1532 46.746 18.0648C46.06 18.4666 45.325 18.6333 44.5706 18.6333C42.5907 18.6333 40.4642 17.4963 38.6512 16.5259C37.926 16.1436 36.9362 15.6143 36.603 15.5457C34.3 15.1242 32.4184 15.5064 31.0268 16.6925C29.0178 18.4078 27.9104 21.8091 27.9888 26.0436V26.0828V26.122C27.9104 30.1212 28.9394 33.3656 30.8896 35.2476C32.3204 36.6297 34.2706 37.2668 36.6716 37.1296C37.0734 37.0609 38.2396 36.414 39.0138 35.9827C41.552 34.5615 44.4333 32.9441 46.8246 34.3164C49.0393 35.5907 49.0883 38.6097 49.098 39.5997V39.6291V45.3535H58.3687C59.9464 45.3336 60.4757 44.9906 60.5247 44.9023C60.5247 44.9023 60.662 44.5792 60.2797 43.5498C59.9173 42.5795 59.2803 41.462 58.7117 40.4623C57.9476 39.1292 57.3494 38.0804 57.1733 37.1198C56.5756 33.8361 57.2417 30.9445 59.1236 28.7391C61.6323 25.7887 66.297 24.1518 71.9126 24.2596C77.5374 24.1616 82.1924 25.7887 84.7113 28.7489C86.583 30.9543 87.2593 33.8557 86.6616 37.1296C86.485 38.0902 85.8873 39.1488 85.1227 40.4721C84.5546 41.462 83.9074 42.5892 83.5547 43.5498C83.1724 44.5792 83.3097 44.9023 83.3097 44.9023C83.3587 44.9809 83.888 45.3239 85.4657 45.3535H93.4624V4.53809H49.0883L49.098 12.5757V12.5855Z" fill="#118ACB"/>
<path d="M12.5832 48.9019C13.5926 48.9116 16.6502 48.9606 17.9438 51.2349C19.3648 53.7246 17.5714 56.861 16.121 59.3803C15.6898 60.1449 15.092 61.1836 15.0136 61.5367C14.6118 63.7421 14.9842 65.4673 16.1406 66.8296C17.9046 68.8977 21.609 70.0838 26.0484 70.0057H26.0876H26.1268C30.576 70.0838 34.2804 68.9078 36.0444 66.8296C37.2008 65.4673 37.5634 63.7421 37.1616 61.5367C37.093 61.1836 36.4952 60.1449 36.0542 59.3803C34.6136 56.861 32.8104 53.7145 34.2314 51.2248C35.525 48.9509 38.5826 48.9116 39.592 48.8922H39.6214H45.374V39.6292C45.3444 38.0021 45.0115 37.5806 44.9625 37.5414C44.9135 37.5316 44.5705 37.463 43.659 37.8061C42.7867 38.1393 41.797 38.6882 40.8464 39.2274C39.2882 40.0997 38.0632 40.7859 36.897 40.8545C33.467 41.0505 30.4976 40.0311 28.3122 37.9237C25.6074 35.3164 24.1766 31.1113 24.2648 26.0731C24.1668 20.6526 25.7152 16.3104 28.616 13.8403C30.87 11.9191 33.8688 11.2427 37.289 11.8603C38.2004 12.0269 39.2294 12.5758 40.425 13.213C41.405 13.7324 42.5125 14.3304 43.463 14.644C44.5312 15.0067 44.8447 14.8303 44.8544 14.8205C44.9917 14.7421 45.3444 14.1735 45.3642 12.517L45.3545 4.50879H4.53735V48.8723H12.5734L12.5832 48.9019Z" fill="#FF2800"/>
<path d="M85.4265 49.0882C84.4173 49.0785 81.3595 49.0295 80.066 46.7553C78.645 44.2655 80.4386 41.129 81.879 38.6099C82.2905 37.8944 82.9177 36.7965 82.9866 36.4437C83.3883 34.2382 83.0255 32.5131 81.8693 31.1506C80.1053 29.0824 76.4007 27.8963 71.9515 27.9846H71.9126H71.8733C67.4337 27.8963 63.7296 29.0824 61.9656 31.1506C60.809 32.5131 60.4466 34.2382 60.8483 36.4437C60.9167 36.7965 61.544 37.8845 61.9555 38.6099C63.3963 41.129 65.1895 44.2655 63.7685 46.7553C62.475 49.0295 59.4075 49.0684 58.408 49.0882H58.3785H52.6357L52.6455 58.3509C52.6653 59.9291 53.0083 60.4681 53.0865 60.5074C53.0865 60.5074 53.41 60.6446 54.439 60.2624C55.4093 59.8999 56.5266 59.2625 57.526 58.6939C58.8587 57.9294 59.9076 57.3317 60.8775 57.1551C64.1507 56.5574 67.0515 57.2336 69.2565 59.1058C72.2066 61.6149 73.843 66.2809 73.7353 71.8973C73.843 77.5137 72.2066 82.17 69.2565 84.6889C67.0515 86.561 64.1507 87.2373 60.8677 86.6396C59.8975 86.463 58.849 85.8653 57.5163 85.1007C56.5266 84.5321 55.3996 83.885 54.4293 83.5323C53.4003 83.15 53.0767 83.2873 53.0767 83.2873C52.9986 83.3363 52.6556 83.8656 52.6357 85.4437V93.4713H93.443V49.0882H85.4265Z" fill="#67CA2F"/>
<path d="M48.9215 85.4046C48.9316 84.395 48.9806 81.3367 51.2443 80.0429C53.7336 78.6215 56.8696 80.4154 59.388 81.866C60.1133 82.2779 61.201 82.9052 61.5538 82.9736C63.749 83.3757 65.4835 83.0129 66.8458 81.8563C68.9135 80.0919 70.0996 76.3869 70.0113 71.9465V71.9072V71.8679C70.0996 67.4279 68.9135 63.7225 66.8458 61.9585C65.4835 60.8015 63.749 60.4294 61.5538 60.8311C61.201 60.8995 60.1036 61.5272 59.388 61.9386C56.8696 63.3795 53.7336 65.1735 51.2443 63.7521C48.9705 62.4582 48.9316 59.3902 48.9215 58.3904V58.3709V52.6367H39.641C38.0632 52.6662 37.534 52.9991 37.485 53.0874C37.485 53.0874 37.3478 53.411 37.73 54.4501C38.0926 55.4204 38.7394 56.5478 39.3078 57.5375C40.0722 58.8609 40.67 59.9098 40.8464 60.8704C41.4442 64.1538 40.768 67.0553 38.8962 69.2608C36.3874 72.2113 31.7226 73.8482 26.0974 73.7502C20.482 73.8482 15.8172 72.2113 13.3084 69.2608C11.4366 67.0553 10.7604 64.1538 11.3582 60.8704C11.5346 59.9098 12.1324 58.8609 12.8968 57.5278C13.4652 56.5377 14.112 55.4107 14.4648 54.4404C14.847 53.4012 14.7098 53.0874 14.7098 53.0777C14.6608 52.9991 14.1316 52.6561 12.5538 52.627H4.54724V93.452H48.9316V85.4046H48.9215Z" fill="#FFC900"/>
</g>
</g>
<defs>
<clipPath id="clip0_331_9699">
<rect width="98" height="98" fill="white"/>
</clipPath>
</defs>
</svg>
